<svg xmlns="http://www.w3.org/2000/svg" xmlns:xlink="http://www.w3.org/1999/xlink" version="1.1" fill="#3ebeb3" x="0px" y="0px" viewBox="0 0 24 24" style="enable-background:new 0 0 24 24;" xml:space="preserve"><g><path d="M22,12c0-1.6-1.8-2.7-4.2-3.3C17.8,8.4,17.9,8,18,7.8c0.6-2.8-0.2-4-1-4.4c-0.8-0.4-2.2-0.6-4.3,1.3   c-0.2,0.2-0.5,0.4-0.7,0.7c-0.2-0.2-0.5-0.5-0.7-0.7C9.2,2.8,7.8,2.9,7,3.3C6.2,3.8,5.4,4.9,6,7.8C6.1,8,6.2,8.4,6.2,8.7   C3.8,9.3,2,10.4,2,12s1.8,2.7,4.2,3.3C6.2,15.6,6.1,16,6,16.3c-0.6,2.8,0.2,4,1,4.4c0.3,0.2,0.6,0.3,1.1,0.3c0.8,0,1.9-0.4,3.2-1.6   c0.2-0.2,0.5-0.4,0.7-0.7c0.2,0.2,0.5,0.5,0.7,0.7c1.4,1.2,2.5,1.6,3.2,1.6c0.4,0,0.8-0.1,1.1-0.3c0.8-0.4,1.6-1.6,1-4.4   c-0.1-0.3-0.2-0.6-0.2-0.9C20.2,14.7,22,13.6,22,12z M8,5.1C8,5.1,8,5.1,8,5.1c0.3,0,0.9,0.1,2,1.1c0.2,0.2,0.5,0.4,0.7,0.7   C10.4,7.2,10,7.7,9.7,8.1c-0.5,0-1,0.1-1.5,0.2C8.1,8,8,7.6,8,7.3C7.6,5.7,7.9,5.1,8,5.1z M6.9,13.4C5,13,4,12.3,4,12s1-1,2.9-1.4   C7.1,11,7.3,11.5,7.5,12C7.3,12.5,7.1,13,6.9,13.4z M10,17.8C8.7,19,8.1,19,8,18.9c-0.1,0-0.4-0.6,0-2.3C8,16.4,8.1,16,8.2,15.7   c0.5,0.1,1,0.1,1.5,0.2c0.3,0.4,0.6,0.9,0.9,1.2C10.4,17.4,10.2,17.6,10,17.8z M12,14c-0.4,0-0.8,0-1.1,0c-0.2-0.3-0.4-0.6-0.6-1   c-0.2-0.3-0.4-0.7-0.5-1c0.2-0.3,0.3-0.7,0.5-1c0.2-0.3,0.4-0.7,0.6-1c0.4,0,0.7,0,1.1,0c0.4,0,0.8,0,1.1,0c0.2,0.3,0.4,0.6,0.6,1   c0.2,0.3,0.4,0.7,0.5,1c-0.2,0.3-0.3,0.7-0.5,1c-0.2,0.3-0.4,0.7-0.6,1C12.8,14,12.4,14,12,14z M16,18.9c-0.1,0-0.7,0-2-1.1   c-0.2-0.2-0.5-0.4-0.7-0.7c0.3-0.4,0.6-0.8,0.9-1.2c0.5,0,1-0.1,1.5-0.2c0.1,0.3,0.2,0.6,0.2,0.9C16.4,18.3,16.1,18.9,16,18.9z    M16,7.3C16,7.6,15.9,8,15.8,8.3c-0.5-0.1-1-0.1-1.5-0.2c-0.3-0.4-0.6-0.9-0.9-1.2c0.2-0.2,0.5-0.5,0.7-0.7c1.1-1,1.7-1.1,1.9-1.1   c0,0,0.1,0,0.1,0C16.1,5.1,16.4,5.7,16,7.3z M17.1,13.4c-0.2-0.5-0.4-0.9-0.6-1.4c0.2-0.5,0.4-1,0.6-1.4C19,11,20,11.7,20,12   S19,13,17.1,13.4z"/><circle cx="12" cy="12" r="0.9"/></g><text x="0" y="39" fill="#3ebeb3" font-size="5px" font-weight="bold" font-family="'Helvetica Neue', Helvetica, Arial-Unicode, Arial, Sans-serif">Created by Mas Dhimas</text><text x="0" y="44" fill="#3ebeb3" font-size="5px" font-weight="bold" font-family="'Helvetica Neue', Helvetica, Arial-Unicode, Arial, Sans-serif">from the Noun Project</text></svg>